<svg width="38" height="32" fill="none" xmlns="http://www.w3.org/2000/svg"><path fill-rule="evenodd" clip-rule="evenodd" d="M18.466 0C8.078 0 0 8.409 0 18.63c0 4.288 1.484 8.575 4.287 11.873L5.44 31.82l2.144-2.141-.824-1.156c-2.308-2.804-3.463-6.266-3.463-9.893 0-8.574 6.926-15.5 15.5-15.5 8.572 0 15.498 6.926 15.498 15.5 0 3.627-1.32 7.089-3.465 9.893l-.821 1.156 2.143 2.141 1.154-1.317c2.308-3.463 3.79-7.585 3.79-11.873C37.096 8.408 28.854 0 18.466 0zm6.76 10.387L14.839 18.63l3.627 3.627L26.71 11.87l-1.484-1.483z" fill="#fff"/></svg>